<svg width="40" height="41" viewBox="0 0 40 41" fill="none" xmlns="http://www.w3.org/2000/svg">
<g id="mdi:charity">
<path id="Vector" d="M21.25 7.06665C22.9166 5.86665 24.85 5.26665 27.0333 5.26665C28.2333 5.26665 29.55 5.58332 30.9833 6.24999C32.4166 6.89999 33.55 7.66665 34.3833 8.54999C36.1 10.6833 36.8166 13.1667 36.5666 16C36.3 18.8333 35.3666 21.05 33.75 22.6167L21.1 35.2667C20.7833 35.5833 20.3833 35.7333 19.9166 35.7333C19.45 35.7333 19.0666 35.5833 18.75 35.2667C18.596 35.1148 18.4751 34.9328 18.3948 34.732C18.3145 34.5313 18.2766 34.3161 18.2833 34.1C18.2833 33.6333 18.4333 33.2333 18.75 32.9167L26.4 25.2667C26.8166 24.9 26.8166 24.5167 26.4 24.1C25.9833 23.6833 25.6 23.6833 25.2333 24.1L17.5833 31.75C17.4291 31.9054 17.2442 32.0271 17.0406 32.1074C16.8369 32.1877 16.6188 32.2249 16.4 32.2167C15.9333 32.2167 15.55 32.0667 15.2333 31.75C15.0794 31.5981 14.9585 31.4161 14.8782 31.2154C14.7979 31.0146 14.7599 30.7994 14.7666 30.5833C14.7666 30.1167 14.9166 29.7167 15.2333 29.4L22.8833 21.75C23.3333 21.3333 23.3333 20.9167 22.8833 20.5C22.5 20.0833 22.1333 20.0833 21.7166 20.5L14.0666 28.2333C13.9106 28.3863 13.7255 28.5064 13.5223 28.5866C13.319 28.6667 13.1017 28.7053 12.8833 28.7C12.4166 28.7 12.0166 28.55 11.6666 28.2333C11.3333 27.9167 11.1666 27.5333 11.1666 27.0667C11.1666 26.6 11.35 26.1833 11.7166 25.8167L19.3833 18.15C19.8 17.7333 19.8 17.35 19.3833 16.9833C18.9666 16.6167 18.5666 16.6167 18.2 16.9833L10.4666 24.6667C10.1 25 9.71664 25.1833 9.29998 25.1833C8.83331 25.1833 8.43331 25.0167 8.13331 24.6667C7.81664 24.3333 7.64998 23.9333 7.64998 23.4667C7.64998 23 7.81664 22.6167 8.13331 22.3C13.2333 17.1667 16.3833 14.0667 17.5833 12.9167L23.5166 18.7833C24.1666 19.4 24.9166 19.7167 25.8333 19.7167C27 19.7167 27.9166 19.25 28.6 18.3167C29.0666 17.6333 29.2333 16.8833 29.1 16.05C28.9666 15.2167 28.6166 14.5167 28.05 13.9333L21.25 7.06665ZM24.6833 17.6167L17.5833 10.5L5.78331 22.3C4.38331 20.8833 3.58331 18.7167 3.39998 15.7667C3.21664 12.8333 4.01664 10.2833 5.78331 8.14999C7.76664 6.18332 10.1333 5.18332 12.8833 5.18332C15.65 5.18332 18 6.18332 19.9166 8.14999L27.0333 15.2667C27.35 15.5833 27.5 15.9667 27.5 16.4333C27.5 16.9 27.35 17.3 27.0333 17.6167C26.7166 17.9167 26.3333 18.0833 25.8333 18.0833C25.3833 18.0833 25 17.9167 24.6833 17.6167Z" fill="#3A40D8"/>
</g>
</svg>
