<svg width="40" height="40" viewBox="0 0 40 40" fill="none" xmlns="http://www.w3.org/2000/svg">
<path d="M21.25 6.56644C22.9166 5.36644 24.85 4.76644 27.0333 4.76644C28.2333 4.76644 29.55 5.08311 30.9833 5.74977C32.4166 6.39977 33.55 7.16644 34.3833 8.04977C36.1 10.1831 36.8166 12.6664 36.5666 15.4998C36.3 18.3331 35.3666 20.5498 33.75 22.1164L21.1 34.7664C20.7833 35.0831 20.3833 35.2331 19.9166 35.2331C19.45 35.2331 19.0666 35.0831 18.75 34.7664C18.596 34.6146 18.4751 34.4326 18.3948 34.2318C18.3145 34.0311 18.2766 33.8159 18.2833 33.5998C18.2833 33.1331 18.4333 32.7331 18.75 32.4164L26.4 24.7664C26.8166 24.3998 26.8166 24.0164 26.4 23.5998C25.9833 23.1831 25.6 23.1831 25.2333 23.5998L17.5833 31.2498C17.4291 31.4051 17.2442 31.5268 17.0406 31.6072C16.8369 31.6875 16.6188 31.7247 16.4 31.7164C15.9333 31.7164 15.55 31.5664 15.2333 31.2498C15.0794 31.0979 14.9585 30.9159 14.8782 30.7152C14.7979 30.5144 14.7599 30.2992 14.7666 30.0831C14.7666 29.6164 14.9166 29.2164 15.2333 28.8998L22.8833 21.2498C23.3333 20.8331 23.3333 20.4164 22.8833 19.9998C22.5 19.5831 22.1333 19.5831 21.7166 19.9998L14.0666 27.7331C13.9106 27.8861 13.7255 28.0062 13.5223 28.0864C13.319 28.1665 13.1017 28.2051 12.8833 28.1998C12.4166 28.1998 12.0166 28.0498 11.6666 27.7331C11.3333 27.4164 11.1666 27.0331 11.1666 26.5664C11.1666 26.0998 11.35 25.6831 11.7166 25.3164L19.3833 17.6498C19.8 17.2331 19.8 16.8498 19.3833 16.4831C18.9666 16.1164 18.5666 16.1164 18.2 16.4831L10.4666 24.1664C10.1 24.4998 9.71664 24.6831 9.29998 24.6831C8.83331 24.6831 8.43331 24.5164 8.13331 24.1664C7.81664 23.8331 7.64998 23.4331 7.64998 22.9664C7.64998 22.4998 7.81664 22.1164 8.13331 21.7998C13.2333 16.6664 16.3833 13.5664 17.5833 12.4164L23.5166 18.2831C24.1666 18.8998 24.9166 19.2164 25.8333 19.2164C27 19.2164 27.9166 18.7498 28.6 17.8164C29.0666 17.1331 29.2333 16.3831 29.1 15.5498C28.9666 14.7164 28.6166 14.0164 28.05 13.4331L21.25 6.56644ZM24.6833 17.1164L17.5833 9.99977L5.78331 21.7998C4.38331 20.3831 3.58331 18.2164 3.39998 15.2664C3.21664 12.3331 4.01664 9.78311 5.78331 7.64977C7.76664 5.68311 10.1333 4.68311 12.8833 4.68311C15.65 4.68311 18 5.68311 19.9166 7.64977L27.0333 14.7664C27.35 15.0831 27.5 15.4664 27.5 15.9331C27.5 16.3998 27.35 16.7998 27.0333 17.1164C26.7166 17.4164 26.3333 17.5831 25.8333 17.5831C25.3833 17.5831 25 17.4164 24.6833 17.1164Z" fill="white"/>
</svg>
