<svg width="25" height="24" viewBox="0 0 25 24" fill="none" xmlns="http://www.w3.org/2000/svg">
<path d="M18.5 15.0001C17.433 15.0001 16.501 15.5621 15.97 16.4011L9.2959 13.0641C9.4229 12.7321 9.5 12.3761 9.5 11.9991C9.5 11.6231 9.4229 11.2661 9.2959 10.9341L15.97 7.59705C16.502 8.43705 17.433 8.99805 18.5 8.99805C20.157 8.99805 21.5 7.65505 21.5 5.99805C21.5 4.34105 20.157 2.99805 18.5 2.99805C16.843 2.99805 15.5 4.34105 15.5 5.99805C15.5 6.04905 15.5129 6.09706 15.5149 6.14706L8.40796 9.70007C7.88796 9.26807 7.229 8.99707 6.5 8.99707C4.843 8.99707 3.5 10.3401 3.5 11.9971C3.5 13.6541 4.843 14.9971 6.5 14.9971C7.229 14.9971 7.88796 14.7271 8.40796 14.2941L15.5149 17.847C15.5129 17.897 15.5 17.9451 15.5 17.9961C15.5 19.6531 16.843 20.9961 18.5 20.9961C20.157 20.9961 21.5 19.6531 21.5 17.9961C21.5 16.3391 20.157 15.0001 18.5 15.0001Z" fill="#414141"/>
</svg>
